<svg width="627" height="607" fill="none" xmlns="http://www.w3.org/2000/svg"><path d="M512.902 500.758h-20.649l2.709 7.28c-4.438 1.445-14.534 4.758-19.067 6.061-4.221 1.214-5.378 6.116-2.014 8.396 1.407.954 3.292 1.425 5.119 1.418l30.812-.11c4.283-.016 7.11-1.149 7.683-4.777a5.864 5.864 0 00-.167-2.495l-4.426-15.773zm-116.319.142h-21.896l2.405 7.12c-4.438 1.446-14.824 4.887-19.356 6.19-4.221 1.213-5.378 6.114-2.014 8.395 1.407.954 3.292 1.315 5.119 1.309h33.288l.144-.002c5.021-.061 8.462-5.108 6.816-9.856l-4.506-13.156z" fill="#072C4E"/><path d="M466.626 298.256s14.716 41.946 27.972 85.016c5.939 19.295 26.428 92.41 32.691 110.369 1.124 3.222-1.266 6.957-4.676 6.957H482.05c-4.294 0-8.862-3.358-10.156-7.457-28.535-90.441-45.036-176.667-45.036-176.667 0-.1-33.143 56.545-39.916 68.121a5.95 5.95 0 00-.659 4.368c2.997 12.809 17.757 75.471 26.645 105.51.873 2.952-1.26 6.036-4.337 6.06h-38.434c-3.04 0-6.235-2.389-7.109-5.304-10.38-34.579-17.768-68.424-24.038-99.586-2.738-13.6-.099-20.719 10.784-36.661 12.408-18.177 42.466-66.685 45.836-70.058" stroke="#082C4E" stroke-width="1.171" stroke-linecap="round" stroke-linejoin="round"/><path d="M173.396 501.105h-20.648l-.375 5.858c-4.438 1.445-16.12 5.233-20.653 6.536-4.22 1.213-5.377 6.115-2.013 8.396 1.406.953 3.426 1.314 5.253 1.308h29.44c4.831-.018 7.808-1.458 7.791-6.294l1.205-15.804zm105.998-.561h21.896l5.804 6.418c4.438 1.446 16.12 5.234 20.652 6.537 4.221 1.213 5.377 6.115 2.013 8.396-1.406.953-3.292 1.313-5.119 1.307h-33.288c-4.83-.018-7.393-2.056-8.321-5.928l-3.637-16.73z" fill="#072C4E"/><path d="M262.283 329.913c22.241 41.58 55.328 120.772 64.554 162.938.773 3.535-1.884 7.641-5.498 7.695H270.8c-2.862.043-5.967-3.503-6.391-6.337-7.076-47.222-55.038-161.991-62.003-185.382 0 0-7.822 146.21-8.343 181.806-.075 5.155-3.514 10.533-8.665 10.533h-42.089c-5.714 0-10.113-5.046-9.336-10.713 9.852-71.837 16.687-151.204 25.971-194.783m74.029-3.036c3.595 6.41 8.847 13.442 12.133 17.543M121.747 522.182c118.428 2.531 217.825 1.445 217.825 1.445m19.884-.798c16.723.357 30.493.497 44.514.674 85.271 1.078 121.803.113 121.803.113" stroke="#082C4E" stroke-width="1.171" stroke-linecap="round" stroke-linejoin="round"/><path d="M294.199 164.768s22.6 32.434 53.16 48.391c29.887 15.6 68.327 15.931 70.005 15.937" stroke="#092C4E" stroke-width="28.701" stroke-linejoin="round"/><path d="M294.199 164.768s22.6 32.434 53.16 48.391c29.887 15.6 68.327 15.931 70.005 15.937" stroke="#FC0" stroke-width="26.358"/><path d="M303.421 153.292l-24.43 19.168 3.667 2.669 24.261-15.927-3.498-5.91z" fill="#FC0"/><path d="M290.94 165.571c-3.673-.797-7.564-8.28-8.65-11.571-.837-2.533-.253-4.469 1.989-5.474 3.229-1.448 7.518 2.332 8.169 3.136m-2.001 4.135c.778.874 2.658 4.063 3.141 5.128" stroke="#082C4E" stroke-width="1.171" stroke-linecap="round" stroke-linejoin="round"/><path d="M281.345 152.549c-3.994-.831-4.678 2.728-4.421 4.638.655 4.875 4.991 11.092 7.585 13.37.793.695 2.008.889 2.996.524.988-.364 1.697-1.515 1.354-2.511" stroke="#082C4E" stroke-width="1.171" stroke-linecap="round" stroke-linejoin="round"/><path d="M276.563 156.379c-3.207-.084-3.997 3.346-3.471 6.029.904 4.614 4.589 8.359 6.759 9.9 1.052.746 3.948 1.459 4.887-1.148m23.458-14.246s-2.852-2.286-9.672-12.058c-3.572-5.117-5.536-8.118-7.408-9.924-2.327-2.244-4.426-3.018-5.591-1.741-1.313 1.44.121 6.112 1.78 9.447 2.929 5.886 10.28 17.014 12.301 19.581" stroke="#082C4E" stroke-width="1.171" stroke-linecap="round" stroke-linejoin="round"/><path d="M308.161 166.043c-3.08-2.466-13.439-5.152-15.853-5.076-3.025.095-2.903 3.334-.664 5.226 2.8 2.368 7.695 3.727 8.105 3.746 1.106.053-5.106 1.672-5.736 5.803" stroke="#082C4E" stroke-width="1.171" stroke-linecap="round" stroke-linejoin="round"/><path d="M510.074 353.674s25.331-36.55 10.111-73.255c-14.889-35.929-57.091-44.221-58.89-44.565" stroke="#092C4E" stroke-width="28.701" stroke-linejoin="round"/><path d="M510.074 353.674s25.331-36.55 10.111-73.255c-14.889-35.929-57.091-44.221-58.89-44.565" stroke="#FC0" stroke-width="26.358"/><path d="M459.15 299.592l-57.188-8.942a5.84 5.84 0 01-4.864-6.672l9.272-59.42c1.466-9.393 10.26-15.818 19.643-14.351l34.739 5.432c9.384 1.467 15.802 10.272 14.337 19.665l-9.274 59.419a5.834 5.834 0 01-6.665 4.869z" fill="#2F97F3"/><path d="M484.459 458.607l-89.595-40.079 52.738-118.045 89.595 40.078-52.738 118.046z" fill="#fff"/><path d="M420.742 402.185a21311.683 21311.683 0 0144.779-57.685c1.005-1.29 2.117-2.654 3.691-3.097 1.616-.456 3.318.174 4.878.793l16.241 6.444m-68.276 56.259c3.134.913 13.169 5.303 13.169 5.303s19.28-23.811 19.872-23.924c.321-.06 12.954 5.085 12.803 5.586-3.04 10.1-5.109 20.513-7.251 27.475-.125.409 16.236 7.694 16.516 7.573.504-.217.927-1.888 1.046-2.424 2.068-9.327 11.169-53.633 11.466-60.71" stroke="#082C4E" stroke-width="1.171" stroke-linecap="round" stroke-linejoin="round"/><path d="M462.029 374.674s7.362 3.377 9.357 4.153c.434.169 4.13-22.701 4.13-22.701l-13.487 18.548zm34.648-30.189c-3.18 4.994-12.412 14.199-9.661 16.367 3.278 2.583 9.852-5.136 12.743-9.037m-5.398 17.634c-.077 2.651 3.34 2.086 5.232 1.002 4.986-2.857 8.403-8.399 10.841-12.379" stroke="#082C4E" stroke-width="1.171" stroke-linecap="round" stroke-linejoin="round"/><path d="M500.821 349.687c-1.845 3.415-2.276 5.322-6.799 11.194-2.436 3.161-6 7.39-3.777 8.659 4.486 2.56 12.006-8.151 15.417-14.297m-5.634 16.93c.418.694 1.759 1.668 3.926.792 3.588-1.449 7.283-4.142 9.211-7.499" stroke="#082C4E" stroke-width="1.171" stroke-linecap="round" stroke-linejoin="round"/><path d="M496.631 344.343s7.961-9.92 10.035-22.732m28.071 16.236s-2.736 10.857-7.485 18.428M396.953 243.691s3.985.952 17.153-.464m-9.601-30.687s4.299.547 16.162.054m53.671 44.331s-4.191-2.683-13.705-3.863m18.583-28.463s-8.491-3.641-16.683-3.932" stroke="#092C4E" stroke-width="1.171"/><path d="M441.748 193.427s-5.451 3.677-11.585.656m4.042-9.427l-3.158 5.083 2.72 1.454" stroke="#082C4E" stroke-width="1.171" stroke-linecap="round" stroke-linejoin="round"/><path d="M433.936 183.883a4.05 4.05 0 01-4.311 3.772 4.05 4.05 0 01-3.768-4.315 4.049 4.049 0 118.079.543zm10.088 1.135a4.05 4.05 0 11-8.078-.542 4.05 4.05 0 014.309-3.773 4.052 4.052 0 013.769 4.315z" stroke="#082C4E" stroke-width="1.171" stroke-linecap="round" stroke-linejoin="round"/><path d="M434.225 184.36l1.721.116-1.721-.116z" fill="#2F97F3"/><path d="M434.225 184.36l1.721.116" stroke="#082C4E" stroke-width="1.171" stroke-linecap="round" stroke-linejoin="round"/><path d="M448.474 170.272c-2.122-2.795-5.386-4.697-9.16-4.95-6.926-.465-12.917 4.778-13.381 11.711l16.338 1.096c1.528 3.125 4.575 4.219 7.155 4.728 2.659.524 3.86 1.891 4.163 3.545.077.419.13.865.181 1.327a4.599 4.599 0 011.898-.274 4.622 4.622 0 012.1 8.556 10.173 10.173 0 005.286 1.859 18.845 18.845 0 002.13-7.546c.679-10.127-6.738-18.922-16.71-20.052z" fill="#FD6470"/><path d="M462.278 198.94c-3.53 5.144-9.449 8.518-16.154 8.518-10.815 0-19.583-8.777-19.583-19.604 0-.514.019-1.023.058-1.529m-226.935-8.178l5.144 3.5-2.131 2.771m2.392 2.258s-4.617 3.673-9.683 2.169c0 0 .813 6.611 7.211 5.384" stroke="#082C4E" stroke-width="1.171" stroke-linecap="round" stroke-linejoin="round"/><path d="M203.192 174.415a19.532 19.532 0 014.23 12.206c-.02 10.827-8.804 19.588-19.619 19.568-5.809-.011-11.021-2.551-14.6-6.578" stroke="#082C4E" stroke-width="1.171" stroke-linecap="round" stroke-linejoin="round"/><path d="M202.789 172.989a20.193 20.193 0 00-16.847-6.917c-.012 0-1.604.157-2.67.41-1.537.366-2.862.803-3.849 1.237a20.49 20.49 0 00-5.789 3.828 9.085 9.085 0 00-1.136-1.018 9.04 9.04 0 00-12.658 1.862c-2.982 4.013-2.15 9.686 1.859 12.671a8.988 8.988 0 005.648 1.779c.06 1.504.292 3.02.708 4.522 1.064 4.389 3.889 7.614 3.889 7.614 5.422-2.154 7.902-4.188 9.026-6.154a4.623 4.623 0 01-4.769-4.94 4.621 4.621 0 014.926-4.296c.429.03.837.121 1.224.258.431-1.053 1.219-2.11 2.647-3.179 4.321-3.231 5.596-6.378 5.445-8.918a20.107 20.107 0 0012.346 1.241zM58.434 477.973c0 9.891 6.196 18.329 14.912 21.65-5.159 2.723-8.677 8.142-8.677 14.386v8.37h38.757v-8.37c0-6.244-3.519-11.663-8.678-14.386 8.717-3.321 14.912-11.759 14.912-21.65v-23.62H58.434v23.62z" fill="#2F97F3"/><path d="M67.667 419.985a146.332 146.332 0 0112.345 36.734m4.665-1.138c2.415-16.249 13.593-37.391 17.187-40.708" stroke="#082C4E" stroke-width="1.171" stroke-linecap="round" stroke-linejoin="round"/><path d="M75.573 454.028a151.547 151.547 0 01-7.906-10.769c-1.629-2.438-5.626-9.438-2.432-10.259 1.88-.483 4.613 3.238 6.386 5.42-5.062-7.395-9.925-15.527-10.123-24.49-.073-3.335.955-6.982 3.837-8.655 3.615-2.098 7.097 1.501 8.782 4.424 5.14 8.92 3.988 15.406 5.15 25.634.257-.822.411-3.312 1.674-3.319 4.083-.023 2.501 18.029 1.545 21.88m2.36-20.691c1.382-6.748 4.979-22.292 9.54-22.078 1.974.093 2.023 3.315 1.852 4.197 1.685-5.65 6.139-10.402 11.667-12.442 1.311-.484 2.857-.8 4.044-.064 1.073.666 1.532 2.041 1.442 3.3-.091 1.259-.637 2.434-1.192 3.568-2.21 4.508-6.211 10.394-8.986 14.579 3.595-2.475 5.155-3.029 7.049-2.719 1.521.25 2.523 1.868 2.57 3.411.048 1.543-.634 3.008-1.367 4.367a46.45 46.45 0 01-11.793 14.147c1.383.204 3.133-1.018 3.991.087.217.28.289.649.292 1.004.011 1.577-1.166 2.887-2.335 3.942a36.219 36.219 0 01-9.99 6.397" stroke="#082C4E" stroke-width="1.171" stroke-linecap="round" stroke-linejoin="round"/><path d="M487.103 138.5h43.255v59.238h-43.255V138.5z" fill="#FD6470"/><path d="M492.963 144.736h31.506v46.376h-31.506v-46.376z" stroke="#082C4E" stroke-width="1.171" stroke-linecap="round" stroke-linejoin="round"/><path d="M513.605 162.992c0 4.41-3.572 7.984-7.977 7.984s-7.976-3.574-7.976-7.984c0-4.409 3.571-7.984 7.976-7.984 4.405 0 7.977 3.575 7.977 7.984zm-4.494 17.655a6.069 6.069 0 016.066-6.072 6.069 6.069 0 016.067 6.072m-253.907 142.8c32.375-15.643 58.377-33.762 49.744-65.939-13.234-49.328-94.565-40.893-94.565-40.893" stroke="#082C4E" stroke-width="1.171" stroke-linecap="round" stroke-linejoin="round"/><path d="M229.369 247.09s45.495-6.017 56.956 11.695c7.939 12.27 3.415 24.812-14.38 35.086-7.702 4.448-20.111 8.174-27.862 12.736m14.801 15.744c-1.706 3.015-3.683 7.711-3.96 11.555-.037.529.037 1.368.396 1.757.626.68 1.763.246 2.493-.32" stroke="#082C4E" stroke-width="1.171" stroke-linecap="round" stroke-linejoin="round"/><path d="M248.921 307.711c-2.198 2.16-4.409 4.333-6.22 6.829-1.811 2.494-3.22 5.351-3.616 8.409-.081.623-.064 1.373.456 1.725.275.186.633.207.961.153 1.2-.2 2.046-1.247 2.792-2.208a108.904 108.904 0 016.846-7.988c-2.387 3.728-4.805 7.517-6.072 11.759-.164.548-.31 1.119-.237 1.687.073.568.41 1.136.95 1.323.503.175 1.057-.007 1.537-.238 2.179-1.046 3.732-3.052 5.012-5.105 1.278-2.052 2.779-4.686 3.706-5.951-2.242 3.234-5.308 8.321-6.094 13.044-.252 1.51.051 2.784.87 3.262 1.012.589 2.198-.649 2.543-1.056 2.589-3.037 4.612-7.913 6.444-10.865" stroke="#082C4E" stroke-width="1.171" stroke-linecap="round" stroke-linejoin="round"/><path d="M154.095 123.441S88.37 142.002 95.75 190.812c7.239 47.852 73.011 47.103 75.573 47.056" stroke="#092C4E" stroke-width="28.701" stroke-linejoin="round"/><path d="M154.095 123.441S88.37 142.002 95.75 190.812c7.239 47.852 73.011 47.103 75.573 47.056" stroke="#FC0" stroke-width="26.358"/><path d="M250.46 97.68l-1.517-4.83a3.5 3.5 0 00-2.841-2.417l-43.759-6.294a7.2 7.2 0 00-4.146.64l-25.651 13.94c-1.586-4.009-6.072-6.065-10.156-4.594l-6.778 2.442c-4.166 1.5-6.327 6.095-4.829 10.263l12.484 34.73a8.012 8.012 0 0010.255 4.831l6.778-2.442c3.364-1.212 5.418-4.442 5.296-7.836l27.75-2.823a6.976 6.976 0 003.96-1.838l32.206-30.163a3.505 3.505 0 00.948-3.61z" fill="#fff"/><path d="M249.79 95.56l-34.025 10.711m-11.034 3.474a5.792 5.792 0 013.783-7.26 5.783 5.783 0 017.253 3.785 5.792 5.792 0 01-3.782 7.261 5.785 5.785 0 01-7.254-3.786z" stroke="#082C4E" stroke-width="1.171" stroke-linecap="round" stroke-linejoin="round"/><path d="M148.307 110.629l7.612 27.124 3.903-.125-8.491-29.011-3.024 2.012z" fill="#FC0"/><path d="M147.277 122.093c3.988-2.058 9.992-3.853 14.523-6.472 4.373-2.528 2.907-4.861-1.114-4.279-3.006.436-10.35 2.21-15.794 4.679m4.602 12.154c1.32-.85 19.407-6.483 17.43-9.644-1.972-3.152-17.059 3.013-19.559 3.643m4.608 11.168c12.339-5.181 17.706-6.97 16.556-9.164-1.132-2.159-12.056 1.845-18.867 3.989" stroke="#082C4E" stroke-width="1.171" stroke-linecap="round" stroke-linejoin="round"/><path d="M235.725 281.487c-.755-9.29-8.747-16.249-17.98-15.791 6.329-3.033 10.405-9.789 9.691-17.186l-2.205-22.845c-.913-9.463-9.316-16.394-18.77-15.479l-32.33 3.127c-9.453.914-16.376 9.326-15.462 18.788l2.204 22.845c.666 6.905 5.323 12.457 11.464 14.601-8.259 1.829-14.111 9.521-13.406 18.197.77 9.476 9.068 16.531 18.534 15.76l42.516-3.463c9.466-.772 16.515-9.079 15.744-18.554z" fill="#FD6470"/><path d="M332.314 523.73c67.284.032 124.734.999 186.256-.269" stroke="#082C4E" stroke-width="1.233" stroke-linecap="round" stroke-linejoin="round"/><path d="M135.198 522.319h-5.213c-13.451 0-24.355-10.915-24.355-24.38v-34.807h53.923v34.807c0 13.465-10.903 24.38-24.355 24.38z" fill="#FD6470"/><path d="M120.957 470.231c-5.335-18.505-13.613-63.978-9.533-67.175 8.335-6.529 12.106 30.789 12.255 44.443.12-15.472-.482-24.058.871-39.471 1.419-16.158 3.511-28.769 8.514-26.457 6.918 3.196 1.055 48.141.771 62.778 2.485-18.612 11.165-60.884 19.985-57.446 6.597 2.571-1.078 42.77-8.209 61.004 2.424-3.423 9.178-17.916 12.641-15.553 8.317 5.672-9.16 30.593-17.383 36.401" stroke="#082C4E" stroke-width="1.85" stroke-linecap="round" stroke-linejoin="round"/><path d="M280.873 211.29h-65.739c-4.966 0-8.992-4.029-8.992-9.001v-55.047c0-4.971 4.499-9.001 9.465-9.001h65.738c4.967 0 8.52 4.03 8.52 9.001v55.047c0 4.972-4.026 9.001-8.992 9.001z" fill="#fff"/><path d="M268.539 199.204h-40.088c-6.563 0-11.884-5.326-11.884-11.897 0-6.57 5.321-11.897 11.884-11.897h40.088c6.564 0 11.885 5.327 11.885 11.897 0 6.571-5.321 11.897-11.885 11.897z" fill="#3098F3"/><path d="M223.288 154.595c10.002.261 20.419.365 30.578.104m-30.057 7.039c3.542.052 9.689-.104 14.69.104" stroke="#072C4E" stroke-width="1.233" stroke-linecap="round" stroke-linejoin="round"/><path d="M382.974 148.276l-65.74-5.744 1.383-15.916c1.579-18.167 17.576-31.608 35.73-30.022 18.154 1.587 31.59 17.6 30.011 35.767l-1.384 15.915z" fill="#2F97F3"/><path d="M352.745 97.26s1.753-19.276 2.853-31.777a14897.89 14897.89 0 002.752-31.762" stroke="#082C4E" stroke-width="2.466" stroke-linecap="round" stroke-linejoin="round"/><path d="M340.196 143.617c1.175 5.222 6.142 9.336 11.487 9.513 5.344.179 10.574-3.596 12.093-8.727" stroke="#082C4E" stroke-width="1.85" stroke-linecap="round" stroke-linejoin="round"/><path d="M267.351 298.619h-24.184c-4.437 0-8.034-3.601-8.034-8.042v-24.208c0-4.441 3.597-8.042 8.034-8.042h24.184c4.437 0 8.033 3.601 8.033 8.042v24.208c0 4.441-3.596 8.042-8.033 8.042z" fill="#fff"/><path d="M255.2 288.508c5.121 0 9.272-4.155 9.272-9.282 0-5.126-4.151-9.282-9.272-9.282-5.122 0-9.272 4.156-9.272 9.282 0 5.127 4.15 9.282 9.272 9.282z" stroke="#072C4E" stroke-width="1.233" stroke-linecap="round" stroke-linejoin="round"/><path d="M225.274 258.052c0 17.695-14.329 32.039-32.006 32.039-17.675 0-32.005-14.344-32.005-32.039s14.33-32.039 32.005-32.039c17.677 0 32.006 14.344 32.006 32.039z" fill="#2F97F3"/><path d="M397.87 252.394c-12.223 8.296-42.266 35.686-72.619 39.797-11.912 1.613-24.648-7.025-30.078-18.716-10.319-22.216-2.394-49.494-3.273-59.822" stroke="#082C4E" stroke-width="1.233" stroke-linecap="round" stroke-linejoin="round"/><path d="M421.101 210.272c-26.897-1.083-43.894 12.308-54.859 21.459-10.726 8.949-26.795 26.68-40.576 25.287-4.579-.463-9.762-4.793-10.87-14.012-1.29-10.745-1.478-22.955-1.478-22.955l.139-3.393c2.021-10.44-3.273-19.32-13.702-23.681-2.429-1.015-5.92-1.931-8.508-2.417-4.853-.913-9.745-1.829-14.683-1.75-.785.013-1.584.28-1.942.98-1.795 3.504 6.177 6.579 9.694 7.964 2.622 1.032 5.593 1.681 7.43 3.82" stroke="#082C4E" stroke-width="1.233" stroke-linecap="round" stroke-linejoin="round"/><path d="M290.611 200.691c-3.268-.116-5.035 3.968-4.785 5.962.584 4.674 6.008 5.583 6.591 7.161" stroke="#082C4E" stroke-width="1.233" stroke-linecap="round" stroke-linejoin="round"/><path d="M303.684 216.675c-9.573-.816-5.188-9.451-9.109-9.463-2.648-.009-5.597.959-5.364-2.195.157-2.127 3.011-2.763 3.736-2.922 4.955-1.093 10.325.363 13.775 4.086" stroke="#082C4E" stroke-width="1.233" stroke-linecap="round" stroke-linejoin="round"/><path d="M353.164 487.633l-18.925 2.43-.927 18.356c-3.967 1.275-14.409 4.618-18.459 5.766-3.772 1.07-4.821 5.442-1.825 7.489 1.252.856 2.933 1.282 4.564 1.282h26.403c4.312 0 6.976-1.275 6.976-5.592l2.193-29.731z" fill="#072C4E"/><path d="M385.303 283.585s-43.059 55.234-51.491 81.412c-6.644 20.624 41.442 29.643 41.779 26.111 2.414-25.261 46.455-87.135 49.078-94.507" fill="#FC0"/><path d="M385.303 283.585s-43.059 55.234-51.491 81.412c-6.644 20.624 41.442 29.643 41.779 26.111 2.414-25.261 46.455-87.135 49.078-94.507" stroke="#092C4E" stroke-width="1.432"/><path d="M336.24 358.855c-19.811 34.5-33.509 140.487-24.572 141.553 6.697.8 50.498 2.363 54.019 2.823 15.011 1.964.556-81.097 10.672-116.819" fill="#FC0"/><path d="M336.24 358.855c-19.811 34.5-33.509 140.487-24.572 141.553 6.697.8 50.498 2.363 54.019 2.823 15.011 1.964.556-81.097 10.672-116.819" stroke="#092C4E" stroke-width="1.345"/><path d="M499.648 472.545l-11.987 13.743 11.985 13.262c-1.785 3.769-6.495 13.678-8.431 17.421-1.801 3.485.666 7.242 4.207 6.456 1.481-.328 2.941-1.263 4.057-2.454l18.067-19.272c2.951-3.148 3.844-5.965.7-8.919l-18.598-20.237z" fill="#072C4E"/><path d="M427.845 279.823c-24.487 2.399-14.626 35.814-14.626 35.814s-13.762 40.859 14.17 91.518c11.833 21.461 52.767-6.913 48.949-15.53-18.667-42.135-12.057-59.303-11.849-69.328.208-10.024-6.622-45.415-36.644-42.474z" fill="#FC0"/><path d="M427.845 279.823c-24.487 2.399-14.626 35.814-14.626 35.814s-13.762 40.859 14.17 91.518c11.833 21.461 52.767-6.913 48.949-15.53-18.667-42.135-12.057-59.303-11.849-69.328.208-10.024-6.622-45.415-36.644-42.474z" stroke="#092C4E" stroke-width="1.224"/><path d="M434.71 275.967c-46.085-14.128-36.319 11.772-36.319 11.772s2.402 30.329 18.378 30.381c15.975.053 32.112-37.809 17.941-42.153zm-12.628 119.738c19.985 64.37 52.029 108.708 58.761 108.318 4.464-.259 47.233-36.258 44.405-39.439-5.916-6.657-39.835-35.707-56.474-94.972" fill="#FC0"/><path d="M422.082 395.705c19.985 64.37 52.029 108.708 58.761 108.318 4.464-.259 47.233-36.258 44.405-39.439-5.916-6.657-39.835-35.707-56.474-94.972" stroke="#092C4E" stroke-width="1.234"/><path d="M459.075 301.603l-78.926-4.475c-2.088-.119-3.405-3.751-2.656-7.325l6.874-32.824c1.498-7.151 5.44-11.954 9.617-11.717l57.197 3.243c4.177.238 7.552 5.455 8.233 12.729l3.127 33.392c.34 3.636-1.378 7.096-3.466 6.977z" fill="#FD6470"/><path d="M452.002 267.005l-60.921-3.455 1.725-30.492c.953-16.84 15.364-29.718 32.187-28.764 16.823.954 29.688 15.379 28.735 32.22l-1.726 30.491z" fill="#FD6470"/><path d="M474.906 232.448l.976-20.635c.143-2.858-2.086-5.298-4.942-5.437l-92.83-4.462c-2.855-.14-5.293 2.092-5.426 4.95l-.977 20.634c-.56 11.92 3.624 23.004 11.004 31.3-3.691.976-6.754 3.834-8.015 7.598l-7.305 22.795c-.767 2.509.969 5.019 3.549 5.158l98.398 4.741c2.58.14 4.599-2.231 4.041-4.81l-5.152-23.423c-.844-3.903-3.622-6.971-7.246-8.365 8.082-7.459 13.375-18.054 13.925-30.044z" fill="#FD6470"/><path d="M449.059 169.189a6.063 6.063 0 01-4.361-3.555c-.464-1.089-1.004-2.267-1.514-3.174-2.624-4.66-8.357-6.714-13.337-4.776-5.943 2.312-8.574 9.132-5.883 14.79 1.796 3.775 2.744 11.579 17.333 20.222l21.229-10.971s-.373-2.922-2.67-6.305c-3.607-5.31-7.383-5.528-10.797-6.231z" fill="#fff"/><path d="M401.997 157.854a6.059 6.059 0 004.361-3.555c.465-1.089 1.005-2.267 1.516-3.174 2.623-4.66 8.356-6.714 13.336-4.776 5.943 2.312 8.574 9.132 5.883 14.79-1.796 3.775-4.668 9.812-19.257 18.455l-19.306-9.204s.374-2.922 2.671-6.305c3.607-5.311 7.382-5.528 10.796-6.231z" fill="#fff"/><path d="M414.681 159.865c0 4.409 3.569 7.983 7.973 7.983s7.975-3.574 7.975-7.983c0-4.408-3.571-7.982-7.975-7.982s-7.973 3.574-7.973 7.982z" fill="#072C4E"/><path d="M423.758 155.393c-3.531 0-6.845.925-9.715 2.547-6.013 3.399-10.072 9.854-10.072 17.259 0 10.94 8.859 19.807 19.787 19.807 10.928 0 19.787-8.867 19.787-19.807 0 0 .355-6.385-3.991-11.801-2.78-3.464-15.796-8.005-15.796-8.005z" fill="#FC0"/><path d="M413.792 158.411c-6.012 3.399-10.071 9.855-10.071 17.26 0 10.939 8.858 19.807 19.785 19.807 10.929 0 19.788-8.868 19.788-19.807" stroke="#082C4E" stroke-width="1.233" stroke-linecap="round" stroke-linejoin="round"/><path d="M415.095 157.55a19.737 19.737 0 018.765-2.042c9.981 0 18.238 7.38 19.627 16.984a23.48 23.48 0 01-6.217.835c-10.261 0-18.984-6.593-22.175-15.777z" fill="#fff"/><path d="M413.408 173.273l-3.828 5.376 3.932 1.814m-3.932 3.649c4.867 2.212 8.958-2.196 8.958-2.196s1.658 5.856-3.365 7.255" stroke="#082C4E" stroke-width="1.233" stroke-linecap="round" stroke-linejoin="round"/><path d="M484.456 221.583c-9.933-2.131-8.498 30.868-8.498 30.868s19.333 7.629 16.494 45.272c-2.838 37.644-41.319 46.169-41.319 46.169s.694 4.056 3.532 3.702c2.839-.355 7.384.413-2.467 5-8.36 3.892 2.65 4.43 1.585 6.206-1.064 1.776 6.896 6.242 6.896 6.242s6.24 3.755 14.044.026c7.805-3.73 31.034-19.396 40.081-46.386 9.047-26.99 6.031-52.737.177-64.456-5.854-11.719-20.593-30.513-30.525-32.643z" fill="#FC0"/><path d="M469.343 349.045c-7.781 6.287-18.026 9.879-20.562 7.71-2.17-1.797.152-3.743 3.136-5.015 4.268-1.797 9.645-3.818 12.415-6.737" stroke="#072C4E" stroke-width="1.328" stroke-linecap="round" stroke-linejoin="round"/><path d="M471.43 354.059c-4.104 4.49-17.721 10.03-19.361 5.989-.519-1.273.448-2.397 1.497-2.92" stroke="#072C4E" stroke-width="1.328" stroke-linecap="round" stroke-linejoin="round"/><path d="M460.37 213.49c30.055 5.24 48.752 21.107 57.572 47.529 8.006 24.102 3.513 63.323-24.005 90.119-9.786 9.582-19.288 14.671-26.316 15.87-3.808.672-6.285.073-7.782-1.199" stroke="#072C4E" stroke-width="1.328" stroke-linecap="round" stroke-linejoin="round"/><path d="M459.922 348.148c-5.234.598-11.896.672-11.448-1.572.53-2.471 7.781-5.089 10.175-6.062 3.514-1.423 10.162-5.24 12.638-7.113 13.607-10.553 22.732-23.876 21.531-45.956-1.864-33.084-25.043-41.167-38.059-45.434m.825 119.831c.07.898.967 2.02 3.137 2.246 4.338.374 12.342-2.246 15.183-5.615" stroke="#072C4E" stroke-width="1.328" stroke-linecap="round" stroke-linejoin="round"/><g clip-path="url(#clip0)"><path d="M338.157 426.508L236.17 398.852l26.492-97.899 101.987 27.657-26.492 97.898z" fill="#2F97F3"/><path d="M273.201 334.532c18.242 4.397 30.479 11.715 49.256 12.589m-53.432 12.37c8.838-.403 17.122 3.895 25.012 7.903 1.979 1.005 4.076 2.025 6.292 1.918 1.46-.069 2.852-.628 4.297-.841 4.53-.67 8.771 2.029 12.869 4.075a49.85 49.85 0 0013.132 4.402m-65.539 3.715a519.156 519.156 0 0043.434 11.528" stroke="#082C4E" stroke-width="1.18" stroke-linecap="round" stroke-linejoin="round"/><path d="M393.761 274.869l-103.065 23.316-22.334-98.931 103.064-23.316 22.335 98.931z" fill="#FD6470"/><path d="M302.283 239.241c18.601-3.846 37.104-9.746 55.804-12.851m-49.691 31.997c4.322-2.171 30.695-7.349 34.757-8.743" stroke="#082C4E" stroke-width="1.18" stroke-linecap="round" stroke-linejoin="round"/><path d="M588.533 339.66s5.531-36.17-11.911-64.583c-17.063-27.787-50.665-39.302-52.131-39.792" stroke="#092C4E" stroke-width="27.13" stroke-linejoin="round"/><path d="M588.533 339.66s5.531-36.17-11.911-64.583c-17.063-27.787-50.665-39.302-52.131-39.792" stroke="#FC0" stroke-width="24.771"/><path d="M459.481 311.626c-5.274 6.144-33.448 45.81-52.661 84.275-8.41 16.839-31.497 96.265-32.974 104.277-.443 2.403 1.268 4.596 3.698 4.827h53.117a4.158 4.158 0 004.475-3.361c.717-3.758 14.494-73.975 18.756-87.908 10.479-34.269 39.162-80.609 39.822-81.478-.698.699-9.431 32.172-2.19 62.806 6.995 29.593 36.143 88.132 45.371 106.102 1.447 2.818 5.082 3.648 7.607 1.739l38.157-28.828a5.105 5.105 0 001.12-6.982c-9.895-14.273-42.669-63.687-47.726-98.971l-.236-1.378a77.144 77.144 0 01-.576-22.053c1.618-13.713 4.76-22.401 1.109-32.812" stroke="#082C4E" stroke-width="1.18" stroke-linecap="round" stroke-linejoin="round"/><path d="M567.982 484.654l-13.827 10.235 4.622 6.09c-1.817 3.573-6.61 12.967-8.57 16.512-1.827 3.299.443 6.977 3.867 6.317 1.431-.275 2.861-1.135 3.966-2.249l17.878-18.031c2.921-2.945 3.856-5.628.913-8.551l-8.849-10.323z" fill="#072C4E"/><path d="M524.928 276.835h-3.251c8.377-3.29 14.313-11.45 14.313-21.004v-19.293c0-12.459-10.091-22.56-22.538-22.56h-29.998c-12.447 0-22.537 10.101-22.537 22.56v19.293c0 9.554 5.936 17.714 14.313 21.004h-3.252c-9.263 0-16.773 7.518-16.773 16.792v5.065c0 9.274 7.51 16.791 16.773 16.791h52.95c9.263 0 16.773-7.517 16.773-16.791v-5.065c0-9.274-7.51-16.792-16.773-16.792z" fill="#FD6470"/><path d="M406.733 523.801c57.639-.699 110.215 1.988 169.77-.174" stroke="#082C4E" stroke-width="1.18" stroke-linecap="round" stroke-linejoin="round"/><path d="M528.292 182.245c-.666-1.089-2.189-2.297-2.904-3.089-.505-.559-.867-1.221-1.144-1.907a7.084 7.084 0 01-.494-3.147c.055-.795.098-1.557.096-1.974-.023-4.691-3.84-8.475-8.527-8.452a8.458 8.458 0 00-3.507.778c-.39.181-.831.216-1.276-.036-.582-.33-1.052-1.068-1.456-1.409a8.001 8.001 0 00-3.943-1.793c-2.346-.366-4.63.35-6.346 1.77a9.15 9.15 0 00-1.89-.731c-4.387-1.146-7.593.593-9.558 2.219-1.822 1.507-3.573 3.955-4.574 6.622-.669 1.783-1.889 3.293-3.419 4.423a11.323 11.323 0 00-4.488 7.497c-.843 5.776 2.901 11.304 8.564 12.662a18.965 18.965 0 01-2.419-9.2c-.01-2.043.305-4.012.891-5.86.777-1.261 1.673-2.158 3.992-3.276 3.91-1.885 8.175-1.91 9.782-5.725.376 4.288 3.097 9.406 11.072 13.191 1.365-1.439 3.511-1.903 5.372-.992 2.348 1.151 3.35 4.05 2.237 6.476a4.767 4.767 0 01-1.664 1.972c1.31 1.516 3.263 2.853 6.123 3.349a8.893 8.893 0 002.58.171c4.562-.366 8.146-4.194 8.204-8.775a8.885 8.885 0 00-1.304-4.764z" fill="#2F97F3"/><path d="M481.464 182.219a19.053 19.053 0 00-.456 4.26c.051 10.514 8.608 18.996 19.112 18.944 6.998-.034 13.094-3.847 16.369-9.497m-32.286-5.02c4.69 2.103 8.988-1.558 8.988-1.558" stroke="#082C4E" stroke-width="1.18" stroke-linecap="round" stroke-linejoin="round"/><path d="M487.831 180.47l-3.654 5.184 3.789 1.726" stroke="#082C4E" stroke-width="1.18" stroke-linecap="round" stroke-linejoin="round"/><path d="M361.263 317.953c-2.877 16.352-18.459 27.269-34.804 24.381-16.343-2.888-27.26-18.487-24.382-34.84 2.877-16.352 18.459-27.268 34.802-24.38 16.344 2.888 27.261 18.486 24.384 34.839z" fill="#fff"/><path d="M469.364 221.032c-18.593-3.285-51.112 38.801-58.356 45.062-24.895 21.514-46.787 18.591-54.596 18.418-3.446-.077-8.03.644-9.578 1.502m18.727 10.728c-3.884.757-22.353 3.156-20.084 7.538 1.83 3.535 13.619 2.637 17.825.378 0 0 3.667 4.748 12.665 2.815" stroke="#082C4E" stroke-width="1.18" stroke-linecap="round" stroke-linejoin="round"/><path d="M359.369 311.185c16.833 2.471 38.278-1.988 52.585-11.192 26.404-16.989 37.87-39.811 49.355-42.574m-106.354 35.379c1.931-.391 3.871-.356 6.408-.132" stroke="#082C4E" stroke-width="1.18" stroke-linecap="round" stroke-linejoin="round"/><path d="M416.143 505.572h-17.01l-1.05 4.96c-3.813 1.226-13.851 4.439-17.744 5.543-3.626 1.028-4.634 5.231-1.754 7.199 1.204.822 2.819 1.232 4.387 1.232h25.38c4.146 0 6.706-1.225 6.706-5.375l1.085-13.559z" fill="#072C4E"/><path d="M573.612 338.059c-1.704 7.357-9.731 28.506-6.139 29.579 4.797 1.433 8.844-10.104 11.059-15.196" stroke="#082C4E" stroke-width="1.18" stroke-linecap="round" stroke-linejoin="round"/><path d="M577.402 355.319c.665 6.189.043 9.467 1.083 15.925.855 5.303 2.241 6.983 3.157 6.985 3.712.013 3.067-15.946 2.94-22.35.289 5.755.983 7.496 1.272 13.251.141 2.81.96 9.227 2.726 9.641 3.121.731 2.818-4.764 2.805-8.921-.013-4.624-.018-8.892-.566-13.483.585 5.73 1.883 20.429 3.12 20.948 3.322 1.394 4.404-13.745 3.192-20.66m6.473-18.005s-.73 14.706-3.926 23.091" stroke="#082C4E" stroke-width="1.18" stroke-linecap="round" stroke-linejoin="round"/><path d="M575.109 335.331l-.718 4.419 27.786 4.344s1.193-4.281.751-5.819c-.2.038-27.819-2.944-27.819-2.944z" fill="#FC0"/><path d="M538.029 258.393s-2.162-2.023-11.425-4.737" stroke="#092C4E" stroke-width=".885"/><path d="M247.197 236.965s-26.191 19.044-55.504 18.5c-28.668-.53-53.657-19.668-54.75-20.511" stroke="#092C4E" stroke-width="27.13" stroke-linejoin="round"/><path d="M247.197 236.965s-26.191 19.044-55.504 18.5c-28.668-.53-53.657-19.668-54.75-20.511" stroke="#FC0" stroke-width="24.771"/><path d="M283.444 243.695c-16.813-12.856-73.923-76.393-90.441-93.282a7.379 7.379 0 01-1.181-8.752c1.94-3.471 5.202-7.611 10.17-9.031 2.562-.733 5.322.014 7.209 1.896l92.597 92.298c.366.366.663.796.874 1.268l9.484 21.26c1.074 2.408-1.276 4.923-3.75 4.011l-22.346-8.237a9.97 9.97 0 01-2.616-1.431z" fill="#fff"/><path d="M309.879 245.562c-2.06.358-4.69 3.341-5.85 5.53m-3.839-24.766c-7.734 4.259-13.576 10.329-15.167 17.175m-75.629-106.876c-5.898 1.817-12.358 7.68-15.497 12.996m33.269 81.483c4.649-2.585 12.539-6.64 13.423-7.481 6.001-5.708 9.635-7.769 13.076-7.891m4.567 5.015c-.697.786-.777 2.57-.519 3.588.259 1.019 1.365 3.442 3.842 4.189 3.387 1.022 10.964-1.962 13.89-2.679 2.637-.646 3.531.142 3.239 1.302-.49 1.938-2.948 5.898-7.559 8.547-8.569 4.923-10.234 10.862-14.774 13.638-1.353.827-6.194 3.809-11.042 6.434" stroke="#082C4E" stroke-width="1.18" stroke-linecap="round" stroke-linejoin="round"/><path d="M241.779 224.086l-5.302 3.355 15.215 22.878s4.334-2.278 6.483-3.987c.898-.714-16.396-22.246-16.396-22.246z" fill="#FC0"/><path d="M162.237 503.356h15.208v4.267c3.813 1.227 16.041 6.567 19.935 7.67 3.626 1.028 4.634 5.231 1.754 7.199-1.203.822-2.82 1.232-4.387 1.232h-25.379c-4.147 0-7.131-1.225-7.131-5.375v-14.993zm-99.411 0h-15.21v4.267c-3.812 1.227-16.04 6.567-19.934 7.67-3.625 1.028-4.633 5.231-1.754 7.199 1.204.822 2.82 1.232 4.388 1.232h25.38c4.146 0 7.13-1.225 7.13-5.375v-14.993z" fill="#072C4E"/><path d="M74.171 297.289c-9.43 29.374-48.462 167.449-50.512 198.997a6.47 6.47 0 006.457 6.893h40.732c3.648 0 5.925-3.056 6.467-6.669 4.541-30.321 26.549-146.418 32.138-173.693 0 0 24.804 71.894 39.355 174.661.438 3.095 3.157 5.352 6.28 5.345 8.447-.021 24.78-.055 34.411-.042 3.968.006 6.965-3.592 6.249-7.5-5.3-28.933-24.225-137.474-61.136-207.269" stroke="#082C4E" stroke-width="1.18" stroke-linecap="round" stroke-linejoin="round"/><path d="M136.913 268.391h-.395c2.236-1.977 3.972-5.59 4.654-10.112l4.816-31.876c.525-3.471-.938-6.885-2.948-6.885H67.051c-2.01 0-3.472 3.414-2.947 6.885l4.814 31.876c.684 4.522 2.42 8.135 4.655 10.112h-.394c-6.958 0-12.6 5.646-12.6 12.611v3.806c0 6.965 5.642 12.612 12.6 12.612h63.734c6.958 0 12.599-5.647 12.599-12.612v-3.806c0-6.965-5.641-12.611-12.599-12.611z" fill="#2F97F3"/><path d="M33.26 523.624c.231.453 160.447 2.117 199.067-1.499M109.153 193.63s5.13 4.434 11.78 2.096m-2.982-10.148l2.61 5.591-2.963 1.154" stroke="#082C4E" stroke-width="1.18" stroke-linecap="round" stroke-linejoin="round"/><path d="M118.322 184.82a4.177 4.177 0 003.949 4.392 4.176 4.176 0 004.388-3.953 4.175 4.175 0 10-8.337-.439zm-10.467-.079a4.176 4.176 0 003.949 4.392 4.176 4.176 0 004.387-3.953 4.176 4.176 0 00-3.948-4.392 4.176 4.176 0 00-4.388 3.953z" stroke="#082C4E" stroke-width="1.18" stroke-linecap="round" stroke-linejoin="round"/><path d="M117.967 185.273l-1.775-.094 1.775.094z" fill="#2F97F3"/><path d="M117.967 185.273l-1.775-.094m-28.877 11.496c2.914 6.374 9.18 10.949 16.658 11.342 10.716.563 19.86-7.675 20.423-18.403" stroke="#082C4E" stroke-width="1.18" stroke-linecap="round" stroke-linejoin="round"/><path d="M117.881 173.958c-1.392-1.243-3.012-2.617-5.513-3.54a22.16 22.16 0 00-6.354-1.294 19.362 19.362 0 00-9.085 1.724c-.356-3.906-3.633-6.965-7.627-6.965-4.233 0-7.664 3.435-7.664 7.672a7.665 7.665 0 006.34 7.548 19.423 19.423 0 00-2.434 8.467 19.435 19.435 0 001.253 7.987l.048.004c.655.035 2.613-.446 5.189-1.616a4.765 4.765 0 013.602-8.141 4.762 4.762 0 014.265 3.251c4.331-3.499 8.7-8.606 11.345-15.804 4.496.511 7.901 2.784 9.834 4.576 0 0-.975-1.88-3.199-3.869z" fill="#FD6470"/><path d="M325.934 522.046h-66.773c-5.044 0-9.134-4.093-9.134-9.143v-55.912c0-5.05 4.571-9.144 9.615-9.144h66.772c5.044 0 8.653 4.094 8.653 9.144v55.912c0 5.05-4.089 9.143-9.133 9.143z" fill="#fff"/><path d="M322.362 484.947c0 16.484-13.349 29.845-29.815 29.845-16.465 0-29.814-13.361-29.814-29.845 0-16.483 13.349-29.845 29.814-29.845 16.466 0 29.815 13.362 29.815 29.845z" fill="#FD6470"/><path d="M293.469 455.125c-.307-.009-.612-.022-.922-.022-16.465 0-29.814 13.361-29.814 29.845 0 16.483 13.349 29.844 29.814 29.844 16.403 0 29.707-13.259 29.809-29.655h-28.788l-.099-30.012z" fill="#fff"/><path d="M293.469 455.125c-.307-.009-.612-.022-.922-.022-16.465 0-29.814 13.361-29.814 29.845 0 16.483 13.349 29.844 29.814 29.844 16.403 0 29.707-13.259 29.809-29.655" stroke="#082C4E" stroke-width="1.18" stroke-linecap="round" stroke-linejoin="round"/><path d="M56.65 322.694c2.178-1.068 10.331 1.382 10.996-1.113.6-2.254-3.85-3.892-10.133-6.289-3.568-1.36-5.094-3.549-7.166-6.279-4.75-6.256-8.015-14.887-8.693-23.234-2.472-30.459 18.233-38.958 33.904-41.086" stroke="#082C4E" stroke-width="1.115" stroke-linecap="round" stroke-linejoin="round"/><path d="M61.638 347.436c-1.773 2.281-8.095-1.546-9.7-2.576-8.684-5.573-24.205-20.783-33.396-46.659-9.811-27.618 10.13-74.47 55.578-77.567" stroke="#082C4E" stroke-width="1.115" stroke-linecap="round" stroke-linejoin="round"/><path d="M57.624 322.469c5.548 5.03 15.65 9.258 20.684 13.797.928.837.719 2.362-.372 2.693-1.502.455-3.512-.038-5.152-.698a91.298 91.298 0 01-13.574-6.856c3.18 2.772 6.887 4.394 14.973 9.633 1.807 1.172.342 2.859-1.367 2.799-3.726-.131-11.452-4.115-15.65-6.608 4.373 3.525 13.08 6.708 13.238 9.04.273 4.013-11.712-.95-16.52-4.399" stroke="#082C4E" stroke-width="1.115" stroke-linecap="round" stroke-linejoin="round"/></g><defs><clipPath id="clip0"><path fill="#fff" transform="translate(1)" d="M0 0h626v599H0z"/></clipPath></defs></svg>