<svg width="40" height="40" fill="none" xmlns="http://www.w3.org/2000/svg"><g clip-path="url(#clip0)" fill="#082C4E"><path fill-rule="evenodd" clip-rule="evenodd" d="M20 39.048c0 .526-.407.952-.91.952C8.548 40 0 31.046 0 20S8.547 0 19.09 0c.503 0 .91.426.91.952s-.407.953-.91.953C9.552 1.905 1.819 10.006 1.819 20c0 9.994 7.733 18.095 17.273 18.095.502 0 .909.427.909.953z"/><path d="M14.73 20.338c.04.11.1.209.178.293l4.223 4.441a.82.82 0 00.82.23.871.871 0 00.6-.63.924.924 0 00-.22-.861l-2.788-2.922h6.946c.466 0 .844-.398.844-.888s-.378-.889-.844-.889h-6.946l2.788-2.922a.911.911 0 00.25-.63.911.911 0 00-.25-.63.825.825 0 00-.6-.263.825.825 0 00-.6.262l-4.223 4.441a.895.895 0 00-.178.293.93.93 0 000 .675z"/></g><defs><clipPath id="clip0"><path fill="#fff" transform="rotate(-180 20 20)" d="M0 0h40v40H0z"/></clipPath></defs></svg>