<svg width="81" height="22" viewBox="0 0 81 22" fill="none" xmlns="http://www.w3.org/2000/svg">
<path d="M13.0939 10.3436C13.0719 8.00696 15.0299 6.87089 15.1179 6.81724C14.0105 5.22006 12.2931 5.00184 11.6895 4.98444C10.2471 4.83436 8.84787 5.83776 8.11307 5.83776C7.36361 5.83776 6.23207 4.99821 5.01254 5.02286C3.44321 5.04679 1.97507 5.94506 1.16987 7.33996C-0.491859 10.1841 0.747474 14.3638 2.33954 16.6635C3.13594 17.7887 4.06654 19.0458 5.28461 19.0016C6.47554 18.953 6.91994 18.2505 8.35874 18.2505C9.78361 18.2505 10.2016 19.0023 11.4439 18.974C12.7221 18.9537 13.5265 17.843 14.2965 16.707C15.2161 15.4165 15.5857 14.1463 15.6004 14.081C15.5711 14.0709 13.1166 13.1458 13.0924 10.3444L13.0939 10.3436ZM10.7472 3.47209C11.3881 2.67966 11.8267 1.60159 11.7049 0.506836C10.7773 0.548161 9.61714 1.14194 8.94907 1.91696C8.35801 2.60064 7.83001 3.72004 7.96641 4.77346C9.00774 4.84959 10.0784 4.25291 10.7472 3.47281V3.47209ZM30.3397 18.8406H28.675L27.762 16.0059H24.5911L23.7221 18.8406H22.1014L25.243 9.19234H27.1834L30.3404 18.8406H30.3397ZM27.487 14.8169L26.662 12.2982C26.574 12.0409 26.4112 11.4355 26.1707 10.4807H26.1413C26.0445 10.891 25.8898 11.4971 25.6771 12.2982L24.8668 14.8176H27.487V14.8169ZM38.4188 15.2765C38.4188 16.4597 38.0961 17.395 37.4486 18.0823C36.8693 18.6927 36.1491 18.998 35.2904 18.998C34.3635 18.998 33.6976 18.6695 33.2921 18.012H33.2627V21.6761H31.7V14.1738C31.7 13.43 31.6802 12.6658 31.6413 11.8828H33.0171L33.1051 12.9863H33.1344C33.6551 12.1547 34.4471 11.7393 35.5082 11.7393C36.3383 11.7393 37.0313 12.0641 37.5857 12.7129C38.1416 13.3625 38.4188 14.2166 38.4188 15.2758V15.2765ZM36.826 15.3331C36.826 14.6559 36.672 14.0977 36.3625 13.6583C36.0252 13.2001 35.5705 12.971 35.0015 12.971C34.6157 12.971 34.2652 13.0986 33.9528 13.3502C33.6375 13.604 33.4321 13.936 33.3368 14.3464C33.2884 14.5378 33.2635 14.6944 33.2635 14.8176V15.9776C33.2635 16.4837 33.4211 16.9107 33.735 17.2594C34.0489 17.6081 34.4566 17.7814 34.9582 17.7814C35.5471 17.7814 36.0054 17.5567 36.3332 17.1093C36.6617 16.6598 36.826 16.069 36.826 15.3331ZM46.5133 15.2765C46.5133 16.4597 46.1892 17.395 45.5417 18.0823C44.9623 18.6927 44.2437 18.998 43.3857 18.998C42.458 18.998 41.7921 18.6695 41.3873 18.012H41.358V21.6761H39.7945V14.1738C39.7945 13.43 39.7747 12.6658 39.7359 11.8828H41.1116L41.1996 12.9863H41.2289C41.7496 12.1547 42.5401 11.7393 43.6027 11.7393C44.4329 11.7393 45.1259 12.0641 45.6817 12.7129C46.2354 13.3625 46.5133 14.2166 46.5133 15.2758V15.2765ZM44.9198 15.3331C44.9198 14.6559 44.7658 14.0977 44.4556 13.6583C44.1183 13.2001 43.6651 12.971 43.0953 12.971C42.7081 12.971 42.3583 13.0986 42.0444 13.3502C41.7305 13.604 41.5259 13.936 41.4299 14.3464C41.3815 14.5378 41.3565 14.6944 41.3565 14.8176V15.9776C41.3565 16.4837 41.5135 16.9107 41.8259 17.2594C42.1397 17.6074 42.5475 17.7814 43.0505 17.7814C43.6394 17.7814 44.0977 17.5567 44.4255 17.1093C44.7541 16.6598 44.9183 16.069 44.9183 15.3331H44.9198ZM55.5627 16.1349C55.5627 16.9556 55.2737 17.6234 54.6951 18.1388C54.0593 18.7022 53.1742 18.9835 52.0368 18.9835C50.9867 18.9835 50.1448 18.7841 49.5068 18.3832L49.8698 17.0948C50.5562 17.5052 51.3093 17.7111 52.1299 17.7111C52.7181 17.7111 53.1764 17.5791 53.5057 17.3167C53.8335 17.0557 53.997 16.7026 53.997 16.2633C53.997 15.8718 53.8621 15.5419 53.5915 15.2744C53.3223 15.0061 52.8728 14.7582 52.2451 14.5276C50.5364 13.8983 49.6828 12.9761 49.6828 11.7617C49.6828 10.9686 49.982 10.319 50.5811 9.81149C51.1781 9.30544 51.9745 9.05241 52.9703 9.05241C53.8577 9.05241 54.5961 9.20611 55.185 9.51134L54.7941 10.7714C54.2441 10.4763 53.6223 10.3291 52.9263 10.3291C52.3763 10.3291 51.9466 10.4625 51.6386 10.7293C51.3783 10.9686 51.2477 11.2586 51.2477 11.603C51.2477 11.9843 51.3966 12.299 51.6951 12.5476C51.9561 12.7767 52.4284 13.0247 53.1155 13.2922C53.9552 13.6257 54.5719 14.0172 54.9687 14.4653C55.3647 14.9119 55.5627 15.4708 55.5627 16.1378V16.1349ZM60.7312 13.0435H59.0079V16.422C59.0079 17.2804 59.3115 17.7096 59.9201 17.7096C60.1988 17.7096 60.4313 17.6857 60.6146 17.6371L60.6571 18.8116C60.3491 18.9255 59.9436 18.9827 59.4413 18.9827C58.8238 18.9827 58.3413 18.7964 57.9929 18.4245C57.6461 18.0518 57.4723 17.4269 57.4723 16.5489V13.0421H56.4456V11.8821H57.4723V10.609L59.0071 10.1501V11.8828H60.7305V13.0428L60.7312 13.0435ZM68.506 15.3048C68.506 16.3742 68.198 17.2522 67.5798 17.9387C66.9323 18.6456 66.0728 18.9972 65.0014 18.9972C63.9696 18.9972 63.1475 18.6594 62.5345 17.9822C61.9214 17.3051 61.6149 16.4503 61.6149 15.4201C61.6149 14.342 61.9302 13.459 62.5631 12.7724C63.1937 12.0851 64.0466 11.7414 65.118 11.7414C66.1498 11.7414 66.9807 12.08 67.6077 12.7579C68.2075 13.4155 68.5067 14.2644 68.5067 15.3048H68.506ZM66.8853 15.3556C66.8853 14.7132 66.746 14.1629 66.4651 13.704C66.1373 13.1479 65.6687 12.8703 65.0615 12.8703C64.4331 12.8703 63.9557 13.1487 63.6279 13.704C63.347 14.1629 63.2084 14.7219 63.2084 15.3831C63.2084 16.0247 63.3477 16.575 63.6279 17.0332C63.9652 17.5886 64.4382 17.8655 65.0476 17.8655C65.6445 17.8655 66.1131 17.5828 66.4512 17.0187C66.7394 16.5511 66.8839 15.995 66.8839 15.3541L66.8853 15.3556ZM73.588 13.2429C73.434 13.2139 73.269 13.1994 73.0967 13.1994C72.5467 13.1994 72.1213 13.4053 71.8207 13.8157C71.5611 14.1782 71.4305 14.6371 71.4305 15.1903V18.8399H69.8685L69.8832 14.0738C69.8832 13.2719 69.8627 12.5418 69.8245 11.8843H71.1856L71.2428 13.2146H71.2868C71.4511 12.7579 71.7121 12.3881 72.0678 12.1126C72.4161 11.864 72.7923 11.74 73.1971 11.74C73.3423 11.74 73.4729 11.7509 73.5887 11.769V13.2429H73.588ZM80.5811 15.0329C80.5811 15.3099 80.5627 15.5433 80.5239 15.734H75.8335C75.8518 16.4206 76.0784 16.9462 76.514 17.3087C76.91 17.6328 77.4204 17.7945 78.0481 17.7945C78.7426 17.7945 79.3755 17.6857 79.946 17.466L80.1909 18.539C79.5251 18.8254 78.7389 18.9682 77.8318 18.9682C76.7406 18.9682 75.8841 18.6507 75.2607 18.0163C74.6396 17.3812 74.3279 16.5301 74.3279 15.4607C74.3279 14.4116 74.6176 13.538 75.1977 12.8413C75.8049 12.0974 76.6255 11.7248 77.658 11.7248C78.6715 11.7248 79.44 12.0974 79.9607 12.8413C80.3735 13.4321 80.5811 14.1629 80.5811 15.0308V15.0329ZM79.0902 14.632C79.1005 14.1731 78.9985 13.7765 78.7866 13.443C78.5153 13.0131 78.0995 12.7978 77.5399 12.7978C77.0288 12.7978 76.613 13.008 76.2955 13.4285C76.0351 13.762 75.8804 14.1637 75.8335 14.6306H79.0895L79.0902 14.632Z" fill="white"/>
</svg>
