<svg width="30" height="21" viewBox="0 0 30 21" fill="none" xmlns="http://www.w3.org/2000/svg">
<path d="M20.7262 1.00625C19.3783 0.913685 18.0255 1.0971 16.7519 1.54512C15.4782 1.99315 14.3108 2.69623 13.3219 3.6108C12.333 4.52536 11.5438 5.63191 11.0032 6.86186C10.4626 8.09181 10.1821 9.41894 10.1791 10.761C10.1761 12.103 10.4506 13.4314 10.9857 14.6637C11.5207 15.8961 12.3049 17.0061 13.2897 17.9251C14.2744 18.844 15.4387 19.5523 16.7103 20.006C17.9819 20.4597 19.3338 20.6491 20.6822 20.5625C23.1794 20.3965 25.5197 19.2941 27.2293 17.4787C28.9389 15.6632 29.89 13.2702 29.89 10.7844C29.89 8.29854 28.9389 5.90559 27.2293 4.0901C25.5197 2.27461 23.1794 1.17225 20.6822 1.00625H20.7262ZM24.5584 6.9125H24.4703C23.1489 7.04375 24.206 8.8375 24.206 8.8375C24.5584 9.58125 24.6024 9.84375 24.6024 10.4125C24.6024 11.8125 23.5893 13.0375 22.4441 13.65C22.4441 13.65 21.7393 14.4813 21.7834 14.8313L22.0036 15.2688H22.7084C22.8405 15.2688 22.9727 15.4 22.9727 15.5313H21.0786C21.0786 15.4 21.2108 15.2688 21.387 15.2688H21.5191C21.5191 15.2688 20.8584 14.9625 20.7703 14.175C18.8762 14.7438 17.2465 13.8688 17.2465 13.8688C17.2465 13.8688 14.2953 14.9188 13.8548 14.6125C14.0751 14.3938 15.7489 13.5625 16.0572 13.3875C21.0346 10.5875 21.431 9.625 21.431 9.625C22.0477 8.8375 21.8715 7.9625 22.0477 7.13125L22.1798 6.60625C22.2679 6.125 22.6643 5.775 23.1489 5.81875C23.5453 5.81875 23.8536 6.08125 23.9858 6.3875C23.9858 6.3875 23.8536 6.51875 23.9858 6.60625C24.1179 6.60625 24.162 6.475 24.162 6.475C24.4262 6.5625 24.6024 6.69375 24.6465 6.9125L24.5143 6.95625L24.5584 6.9125ZM7.51196 0.875L0.156006 20.6938L7.46791 0.875H7.51196Z" fill="black"/>
</svg>
