<svg width="47" height="35" viewBox="0 0 47 35" fill="none" xmlns="http://www.w3.org/2000/svg">
<path d="M12.2039 23.3801C12.2336 23.4047 12.2516 23.4347 12.2558 23.4664C12.2599 23.4981 12.2499 23.5298 12.2271 23.5575C12.1163 23.6805 11.9574 23.7798 11.7683 23.8443C11.5792 23.9089 11.3676 23.936 11.1571 23.9228C10.7821 23.8952 10.4364 23.7713 10.1899 23.5762C9.94338 23.3811 9.81444 23.1294 9.82913 22.8718C9.82278 22.5208 9.91656 22.1723 10.1052 21.8458C10.2243 21.6413 10.2368 21.4149 10.1404 21.2048C10.0441 20.9947 9.84487 20.8137 9.57623 20.6921C9.41724 20.6202 9.23879 20.5708 9.05141 20.5469C8.86402 20.5229 8.67151 20.5248 8.48523 20.5525C8.30273 20.5788 8.12975 20.6297 7.97646 20.7023C7.82317 20.7748 7.69267 20.8676 7.59264 20.9752C7.45115 21.1407 7.34113 21.3179 7.26526 21.5025C7.25062 21.535 7.23881 21.5605 7.22986 21.577C7.10555 21.8061 6.90737 21.8729 6.77309 21.8606C6.70961 21.8546 6.62232 21.8256 6.56637 21.7207C6.49614 21.4176 6.52801 21.1075 6.65955 20.814C6.7911 20.5205 7.01885 20.2514 7.32549 20.0271C7.58302 19.8381 7.90268 19.6937 8.25803 19.6059C8.61339 19.5181 8.99424 19.4894 9.36907 19.5221C9.76616 19.5594 10.1435 19.6634 10.4674 19.8248C10.7912 19.9862 11.0514 20.2 11.2247 20.4469C11.4001 20.7505 11.4709 21.0776 11.4316 21.4029C11.3923 21.7282 11.2438 22.0429 10.9978 22.3226C10.9667 22.3702 10.9382 22.4138 10.9142 22.4533C10.8257 22.5626 10.7771 22.6848 10.7726 22.8096C10.768 22.9345 10.8076 23.0582 10.8879 23.1704C10.9559 23.2373 11.047 23.2916 11.1532 23.3285C11.2594 23.3654 11.3774 23.3837 11.4965 23.3818C11.6088 23.3807 11.7204 23.3699 11.8287 23.3497C11.9697 23.3271 12.1154 23.304 12.2039 23.3801L12.2039 23.3801ZM46.9611 23.9731C46.8823 25.0791 46.5404 26.1689 45.9487 27.1997C42.9971 32.0476 35.953 34.7465 27.5615 34.5757C19.7388 34.4164 13.0668 31.587 10.1467 26.9748C8.30328 26.9395 6.53975 26.4528 5.17754 25.6034C3.77036 24.7836 2.86624 23.632 2.64501 22.3775C2.50222 21.5144 2.65843 20.6405 3.10101 19.8263L1.46108 18.8741C-6.04264 14.5314 17.427 -3.34906 24.9336 1.13863C24.9715 1.16122 27.4871 2.85311 27.4934 2.85728C27.5034 2.85379 28.8814 2.45328 28.8884 2.45132C35.4722 0.58262 40.8148 1.4849 40.8215 4.46648C40.825 6.01708 39.3834 7.82443 37.0743 9.46499C37.9972 10.1068 38.6506 10.9064 38.9661 11.78C39.2207 12.3894 39.3583 13.0189 39.3755 13.6526C39.4156 14.2844 39.4599 15.7565 39.4644 15.7828C39.523 15.7949 40.1895 15.9203 40.3916 15.9592C41.7349 16.1605 42.9849 16.5849 44.0311 17.1947C44.5834 17.5638 44.9451 18.0455 45.0617 18.5673C45.204 19.2443 44.9568 19.9327 44.3719 20.4877C44.5241 20.7249 44.6562 20.9678 44.7675 21.2154C44.9618 21.6424 45.1032 21.9968 45.1249 22.0493C45.8393 22.0493 46.9612 22.613 46.9612 23.9731L46.9611 23.9731ZM13.8003 21.3129C13.29 19.0491 11.0558 18.2512 9.53979 18.1943C9.15925 18.1805 8.77767 18.1991 8.40385 18.2497C5.698 18.6239 4.16979 20.2015 4.4705 22.2515C4.6895 23.1711 5.35587 24.0133 6.3619 24.6421C7.36793 25.2709 8.65485 25.6495 10.0147 25.7167C10.2749 25.7215 10.5352 25.7089 10.7919 25.6793C13.5344 25.3587 14.2524 23.3177 13.8003 21.3129ZM18.4252 6.94236C20.7173 5.65471 23.1624 4.49974 25.735 3.48943C25.735 3.48943 23.6923 1.86602 23.0754 1.74638C19.2812 1.04338 11.0849 4.91773 5.85182 10.0363C3.73437 12.1074 0.70318 15.7751 2.15245 17.6613C2.66731 18.0847 3.24809 18.4685 3.88453 18.806C4.85346 17.8727 6.31546 17.2335 7.96153 17.0233C10.0209 13.0675 13.6425 9.57831 18.4252 6.94236ZM26.6716 24.8567C26.7721 25.1576 26.9898 25.4343 27.3014 25.6576C27.6131 25.8809 28.0073 26.0426 28.4423 26.1255C28.8949 26.2407 29.3618 26.3276 29.8373 26.3851C35.8391 27.0927 41.45 24.7407 42.7133 24.1483C42.8082 24.1038 42.8708 24.1472 42.7947 24.2257C42.7567 24.2675 42.7154 24.3078 42.671 24.3466C41.1249 25.7135 36.9683 27.2965 31.5605 27.2959C29.202 27.2957 26.8446 26.7261 25.9791 25.851C24.6362 24.4932 25.9126 22.5112 28.1501 22.7177C28.1527 22.718 28.9157 22.7773 29.1302 22.7936C32.6084 23.0222 36.1142 22.6376 39.313 21.6767C42.3658 20.7054 43.519 19.6365 43.346 18.7712C43.2882 18.5024 43.1033 18.254 42.8197 18.0637C41.9848 17.5941 40.9936 17.2723 39.9335 17.1267C39.4487 17.0334 39.1197 16.9739 38.7652 16.8938C38.1351 16.7516 37.8236 16.6371 37.753 15.8249C37.7223 15.4697 37.632 14.2323 37.5992 13.7209C37.5416 12.8249 37.3845 11.6002 36.2757 11.0945C35.9934 10.9676 35.6656 10.8958 35.3279 10.8869C35.1386 10.879 34.9486 10.8918 34.7652 10.9247C34.2035 11.0135 33.6916 11.2118 33.2917 11.4956C32.7735 11.8157 32.1641 12.0591 31.5017 12.2106C30.8394 12.3622 30.1383 12.4186 29.4426 12.3763C28.6667 12.3541 27.8446 12.2713 26.9021 12.2329C26.7188 12.2255 26.5347 12.2177 26.3509 12.2113C25.1375 12.233 23.9758 12.5519 23.0774 13.1097C22.179 13.6675 21.6036 14.4272 21.456 15.2506C20.9164 17.7952 23.605 19.1102 24.3812 19.8818C24.5011 19.98 24.5755 20.1005 24.5948 20.2278C24.5744 20.3689 24.4755 20.4993 24.3185 20.5922V20.593C23.2449 21.4103 22.4903 22.3995 22.1246 23.469C21.7589 24.5385 21.7939 25.6538 22.2263 26.7116C22.3289 26.9656 22.4604 27.2138 22.6196 27.4538C24.5814 30.596 30.6672 32.0592 36.6128 30.7282C37.3913 30.554 38.1469 30.3353 38.8717 30.0744C40.1736 29.6334 41.3461 29.0328 42.3307 28.3025C43.862 27.2509 44.8696 25.8964 45.2105 24.4314C45.3895 23.6214 45.1275 23.3082 44.7703 23.1574C44.5177 23.0613 44.2258 23.0247 43.9397 23.0534C43.7883 22.4174 43.5227 21.7965 43.1489 21.2049C41.4508 22.0805 39.5312 22.7349 37.4863 23.1353C35.0258 23.6103 32.4663 23.8 29.914 23.6965C28.2721 23.6055 27.1858 23.277 26.7772 24.1871C29.2609 24.7546 31.898 24.9385 34.4982 24.7254C34.5165 24.7241 34.535 24.7253 34.5526 24.7289C34.5702 24.7325 34.5866 24.7385 34.6009 24.7465C34.6151 24.7544 34.6269 24.7642 34.6356 24.7753C34.6443 24.7864 34.6496 24.7985 34.6514 24.811C34.6542 24.832 34.6473 24.8531 34.6318 24.8714C34.6163 24.8896 34.5928 24.9041 34.5648 24.9128C34.5648 24.9128 31.515 25.8834 26.6716 24.8567ZM17.7398 10.1005C19.7569 9.13276 22.0314 8.44373 24.4353 8.07209C27.1471 7.64266 29.9659 7.63746 32.6811 8.05689C32.7761 8.07181 32.8367 7.95899 32.7517 7.92638C31.3427 7.42507 29.7874 7.14564 28.1998 7.1086C28.1845 7.10842 28.1696 7.10535 28.1567 7.09974C28.1438 7.09413 28.1334 7.08619 28.1267 7.07681C28.1199 7.06742 28.1171 7.05695 28.1185 7.04654C28.12 7.03613 28.1255 7.02619 28.1347 7.01782C28.3813 6.79663 28.6694 6.59853 28.9915 6.42862C29.0059 6.42092 29.0164 6.41028 29.0213 6.39824C29.0263 6.3862 29.0255 6.37339 29.0191 6.36167C29.0127 6.34996 29.0009 6.33995 28.9856 6.3331C28.9703 6.32626 28.9522 6.32293 28.9339 6.32361C26.9898 6.45495 25.1214 6.90707 23.4896 7.64108C23.4757 7.64753 23.4592 7.65097 23.4424 7.65094C23.4256 7.65091 23.4091 7.64742 23.3952 7.64092C23.3813 7.63442 23.3706 7.62521 23.3645 7.6145C23.3583 7.60378 23.3571 7.59205 23.3608 7.58083C23.4923 7.24423 23.6858 6.92042 23.9368 6.6172C23.9452 6.60683 23.9484 6.59491 23.9461 6.58318C23.9437 6.57146 23.936 6.56056 23.9239 6.55208C23.9118 6.54361 23.8961 6.538 23.879 6.53609C23.8619 6.53418 23.8444 6.53607 23.829 6.54147C21.4691 7.43158 19.3671 8.60897 17.6268 10.0156C17.6132 10.0263 17.6058 10.04 17.606 10.0541C17.6062 10.0683 17.614 10.0819 17.628 10.0924C17.6419 10.1029 17.661 10.1095 17.6816 10.111C17.7022 10.1125 17.7229 10.1087 17.7398 10.1005ZM33.5446 18.7382C33.7089 18.8093 33.9057 18.8365 34.0975 18.8147C34.2893 18.793 34.4626 18.7237 34.5844 18.6201C34.7358 18.4199 34.516 18.1483 34.0933 18.0135C33.929 17.9424 33.7321 17.9152 33.5403 17.937C33.3485 17.9589 33.1752 18.0282 33.0535 18.1318C32.9019 18.3319 33.1219 18.6034 33.5446 18.7382ZM34.8413 15.4914C34.9427 15.8519 35.1615 16.1922 35.4815 16.487C35.8121 16.4593 36.1464 16.4593 36.4771 16.487C36.6704 16.0913 36.6873 15.6653 36.5257 15.263C36.2868 14.5208 35.9634 14.0716 35.2952 14.1414C34.6272 14.2114 34.6025 14.7492 34.8413 15.4914ZM36.2628 17.1965C36.0942 17.1634 35.9148 17.1673 35.7497 17.2075C35.5846 17.2477 35.442 17.3223 35.3421 17.4208C35.2422 17.5192 35.1899 17.6365 35.1926 17.7563C35.1954 17.8761 35.2529 17.9923 35.3573 18.0886C35.4616 18.1848 35.6074 18.2564 35.7743 18.2931C35.9412 18.3298 36.1207 18.3299 36.2876 18.2933C36.4546 18.2567 36.6005 18.1853 36.705 18.0891C36.8095 17.9929 36.8672 17.8767 36.8701 17.7569C36.8943 17.628 36.8447 17.4977 36.7314 17.3932C36.6182 17.2887 36.4503 17.2182 36.2628 17.1965Z" fill="black"/>
</svg>
