<svg width="120" height="100" fill="none" xmlns="http://www.w3.org/2000/svg"><path opacity=".2" d="M48.246 37.45L.37 42.48 5.4 90.355l47.876-5.03-5.031-47.876z" fill="#082C4E"/><path d="M47.875 34L0 39.03l5.03 47.876 47.876-5.03L47.876 34z" fill="#fff"/><path d="M40.815 57.852l-30.43 3.15m11 5.72l-9.98 1.19m18.15-16.36l-19.81 2.32" stroke="#082C4E" stroke-width="1.382" stroke-miterlimit="10" stroke-linecap="round" stroke-linejoin="round"/><path opacity=".2" d="M109.826 68.48l-47.55-7.53 7.53-46.04 47.55 7.53-7.53 46.04z" fill="#082C4E"/><path d="M118.136 17.53l-47.548-7.529-7.529 47.548 47.548 7.529 7.529-47.548z" fill="#FC0"/><path d="M78.386 28.96a5.08 5.08 0 100-10.16 5.08 5.08 0 000 10.16zm21.12 22.88a5.08 5.08 0 100-10.16 5.08 5.08 0 000 10.16z" fill="#3098F3"/></svg>