<svg width="120" height="100" fill="none" xmlns="http://www.w3.org/2000/svg"><path fill-rule="evenodd" clip-rule="evenodd" d="M50.374 68.669c0 8.214 6.723 14.898 14.988 14.898S80.35 76.883 80.35 68.67V29.504c0-8.214-6.723-14.899-14.988-14.899s-14.988 6.685-14.988 14.9V68.67zm12.153-39.165c0-1.553 1.274-2.816 2.835-2.816s2.835 1.263 2.835 2.816v39.165c0 1.553-1.274 2.816-2.835 2.816a2.827 2.827 0 01-2.835-2.816V29.504zM36.519 48.741s10.148-4.373 10.148-17.602c0-12.887-9.29-16.11-19.353-16.11L16 15.09v68.092h11.314V55.875l.516 1.88 10.137 25.568h13.62L36.519 48.74zM35.38 32.19c0 8.832-8.07 10.6-8.07 10.6V23.453s8.07-.746 8.07 8.739zM96 15.445H83.844v67.883H96V15.444z" fill="#FC0"/><path d="M101 87.832L12 88V12h89v75.832z" stroke="#082C4E" stroke-width="2" stroke-miterlimit="10" stroke-linecap="round" stroke-linejoin="round"/><path d="M14.999 84.998l-6 .006.006 6 6-.006-.006-6zm89 .012l-6 .006.006 6 6-.007-.006-6zm.004-76.016L97.995 9 98 15.01l6.009-.007-.007-6.008zM15 8.998l-6.002.006.006 6.002L15.006 15 15 8.998zm47.999 0l-6 .006.006 6 6-.006-.006-6zM62 86l-4 .004.004 4 4-.005L62 86z" fill="#082C4E"/></svg>