<svg width="196" height="196" fill="none" xmlns="http://www.w3.org/2000/svg"><rect width="196" height="196" rx="98" fill="#3098F3"/><path d="M98 146.483c26.778 0 48.485-21.707 48.485-48.485 0-26.777-21.707-48.484-48.484-48.484-26.778 0-48.485 21.707-48.485 48.484 0 26.778 21.707 48.485 48.485 48.485z" fill="#F2EAE2"/><path d="M118.407 113.171s-14.777 12.705-33.93 6.183m8.503-29.288l-7.484 16.247 8.46 3.197" stroke="#082C4E" stroke-width="1.5" stroke-miterlimit="10" stroke-linecap="round" stroke-linejoin="round"/><path d="M83.303 97.665c6.584-.809 11.266-6.801 10.457-13.385-.808-6.584-6.8-11.266-13.384-10.458-6.584.809-11.266 6.802-10.458 13.385.809 6.584 6.801 11.266 13.385 10.458zm30.218-.28c6.584-.809 11.266-6.801 10.458-13.385-.809-6.584-6.801-11.266-13.385-10.457-6.584.808-11.266 6.8-10.458 13.384.809 6.584 6.801 11.266 13.385 10.458zM94.824 86.366l5.215-.237" stroke="#082C4E" stroke-width="1.5" stroke-miterlimit="10" stroke-linecap="round" stroke-linejoin="round"/></svg>