<svg width="40" height="40" fill="none" xmlns="http://www.w3.org/2000/svg"><path fill-rule="evenodd" clip-rule="evenodd" d="M20 .952c0-.526.407-.952.91-.952C31.452 0 40 8.954 40 20s-8.547 20-19.09 20c-.503 0-.91-.426-.91-.952s.407-.953.91-.953c9.538 0 17.272-8.101 17.272-18.095 0-9.994-7.734-18.095-17.273-18.095-.502 0-.909-.427-.909-.953z" fill="#082C4E"/><path d="M25.27 19.662a.894.894 0 00-.177-.293l-4.224-4.441a.82.82 0 00-.82-.23.871.871 0 00-.6.63.924.924 0 00.22.861l2.788 2.922H15.51c-.466 0-.844.398-.844.888s.378.889.844.889h6.946l-2.788 2.922a.911.911 0 00-.25.63c0 .237.09.464.25.63a.825.825 0 00.6.263.825.825 0 00.6-.262l4.224-4.441a.895.895 0 00.177-.293.93.93 0 000-.675z" fill="#082C4E"/></svg>